<svg width="795" height="642" viewBox="0 0 795 642" fill="none" xmlns="http://www.w3.org/2000/svg">
<g id="undraw_ride_a_bicycle_re_6tjy 1">
<g id="man-bike">
<path id="Vector" d="M298.911 217.043H317.896V201.855H298.911V217.043Z" fill="white"/>
<path id="Vector_2" d="M421.233 530.292H440.218V515.104H421.233V530.292Z" fill="white"/>
<path id="Vector_3" d="M363.242 471.575L373.986 480.566L414.55 442.48L398.693 429.211L363.242 471.575Z" fill="#FFB6B6"/>
<path id="Vector_4" d="M395.028 468.534L372.275 452.829L432.183 357.848C388.763 332.61 358.902 301.823 334.538 268.005C326.258 256.591 321.21 243.309 332.762 234.747C333.302 234.347 333.856 233.968 334.425 233.61C347.597 225.402 343.321 237.703 361.376 231.662L377.69 249.064L412.937 283.361L473.058 321.739C485.149 329.457 488.504 345.691 480.552 357.999C480.132 358.649 479.684 359.28 479.21 359.892L395.028 468.534Z" fill="#2F2E41"/>
<path id="Vector_5" d="M364.603 464.252L383.441 478.196L377.008 485.883L384.207 511.939C384.562 513.226 384.497 514.593 384.021 515.84C383.545 517.088 382.683 518.15 381.56 518.873C380.437 519.595 379.113 519.94 377.78 519.857C376.448 519.773 375.177 519.266 374.153 518.409L352.792 500.533L355.474 489.848L347.673 496.248L339.619 489.508L364.603 464.252Z" fill="#2F2E41"/>
<path id="Vector_6" d="M338.311 369.348L222.115 410.9L225.483 420.316L341.678 378.764L338.311 369.348Z" fill="#3F3D56"/>
<path id="Vector_7" d="M365.485 530.085L335.209 503.943C333.102 502.123 331.805 499.54 331.602 496.764C331.399 493.987 332.307 491.243 334.127 489.136C335.946 487.029 338.528 485.731 341.305 485.527C344.081 485.323 346.825 486.23 348.933 488.048L379.209 514.19C380.253 515.091 381.11 516.189 381.73 517.421C382.35 518.653 382.721 519.995 382.822 521.37C382.923 522.746 382.752 524.128 382.319 525.437C381.886 526.747 381.199 527.958 380.297 529.002C379.396 530.046 378.298 530.902 377.065 531.521C375.833 532.141 374.491 532.511 373.115 532.612C371.74 532.712 370.358 532.541 369.049 532.107C367.739 531.674 366.528 530.986 365.485 530.085Z" fill="#3F3D56"/>
<path id="Vector_8" d="M537.47 228.067C535.556 228.727 533.522 228.959 531.509 228.748C529.496 228.536 527.554 227.886 525.819 226.843C524.085 225.8 522.601 224.389 521.47 222.71C520.34 221.031 519.592 219.124 519.278 217.125L411.124 189.275L428.762 170.768L531.773 201.015C535.167 200.711 538.555 201.662 541.294 203.689C544.034 205.715 545.935 208.676 546.637 212.011C547.339 215.345 546.794 218.821 545.104 221.781C543.415 224.74 540.698 226.977 537.47 228.067Z" fill="#FFB6B6"/>
<path id="Vector_9" d="M373.168 98.759C373.168 98.759 355.582 100.796 355.898 121.062C356.214 141.327 399.322 187.492 406.048 195.141C412.773 202.79 479.892 206.697 479.892 206.697L500.859 188.262L438.69 167.316L373.168 98.759Z" fill="#6C63FF"/>
<path id="Vector_10" d="M337.496 193.877L333.529 212.485C333.529 212.485 326.308 227.972 327.71 232.11C329.098 236.225 391.592 258.595 391.592 258.595C391.592 258.595 396.947 230.692 405.881 211.87L337.496 193.877Z" fill="#FFB6B6"/>
<path id="Vector_11" d="M537.782 484.919L501.689 502.162C499.177 503.363 496.29 503.516 493.664 502.588C491.039 501.66 488.889 499.727 487.689 497.215C486.488 494.702 486.335 491.815 487.263 489.19C488.191 486.564 490.124 484.414 492.636 483.214L528.729 465.97C531.242 464.77 534.128 464.617 536.754 465.545C539.38 466.473 541.529 468.406 542.729 470.918C543.93 473.431 544.083 476.318 543.155 478.943C542.227 481.569 540.294 483.718 537.782 484.919Z" fill="#3F3D56"/>
<path id="Vector_12" d="M423.248 532.673C433.495 532.673 441.802 524.367 441.802 514.12C441.802 503.873 433.495 495.566 423.248 495.566C413.002 495.566 404.695 503.873 404.695 514.12C404.695 524.367 413.002 532.673 423.248 532.673Z" fill="#3F3D56"/>
<path id="Vector_13" d="M210.357 514.986L203.061 508.147L333.296 369.214L565.708 299.657L681.053 502.091L672.365 507.042L560.957 311.518L338.748 378.021L210.357 514.986Z" fill="#3F3D56"/>
<path id="Vector_14" d="M407.492 508.678H309.219V518.678H407.492V508.678Z" fill="#3F3D56"/>
<path id="Vector_15" d="M341.022 321.334H331.022V373.617H341.022V321.334Z" fill="#3F3D56"/>
<path id="Vector_16" d="M535.467 203.03L525.951 206.103L558.574 307.124L568.09 304.051L535.467 203.03Z" fill="#3F3D56"/>
<path id="Vector_17" d="M340.024 367.039L331.394 372.093L413.394 512.094L422.024 507.039L340.024 367.039Z" fill="#3F3D56"/>
<path id="Vector_18" d="M609.888 387.43L433.896 507.441L439.53 515.703L615.522 395.691L609.888 387.43Z" fill="#3F3D56"/>
<path id="Vector_19" d="M355.209 327.566H315.209C312.424 327.566 309.754 326.46 307.784 324.491C305.815 322.522 304.709 319.851 304.709 317.066C304.709 314.282 305.815 311.611 307.784 309.642C309.754 307.673 312.424 306.566 315.209 306.566H355.209C357.994 306.566 360.665 307.673 362.634 309.642C364.603 311.611 365.709 314.282 365.709 317.066C365.709 319.851 364.603 322.522 362.634 324.491C360.665 326.46 357.994 327.566 355.209 327.566Z" fill="#6C63FF"/>
<path id="Vector_20" d="M550.209 214.566H510.209C507.424 214.566 504.754 213.46 502.784 211.491C500.815 209.522 499.709 206.851 499.709 204.066C499.709 201.282 500.815 198.611 502.784 196.642C504.754 194.673 507.424 193.566 510.209 193.566H550.209C552.994 193.566 555.665 194.673 557.634 196.642C559.603 198.611 560.709 201.282 560.709 204.066C560.709 206.851 559.603 209.522 557.634 211.491C555.665 213.46 552.994 214.566 550.209 214.566Z" fill="#6C63FF"/>
<path id="Vector_21" d="M401.808 83.8747C417.907 81.1377 428.738 65.8683 426.001 49.7695C423.264 33.6706 407.995 22.8387 391.896 25.5757C375.797 28.3127 364.965 43.5822 367.702 59.681C370.439 75.7798 385.709 86.6117 401.808 83.8747Z" fill="#FFB6B6"/>
<path id="Vector_22" d="M579.869 337.593L546.475 267.103L546.927 266.889C549.241 265.792 551.749 265.162 554.306 265.035C556.864 264.908 559.422 265.285 561.833 266.147C564.245 267.008 566.463 268.336 568.362 270.054C570.26 271.773 571.801 273.848 572.898 276.163L589.594 311.408C590.691 313.722 591.321 316.23 591.448 318.787C591.575 321.345 591.198 323.903 590.336 326.314C589.475 328.726 588.147 330.944 586.429 332.843C584.71 334.741 582.635 336.282 580.32 337.378L579.869 337.593Z" fill="#3F3D56"/>
<path id="Vector_23" d="M477.791 349.982C473.586 349.971 469.498 348.604 466.133 346.083C462.769 343.562 460.307 340.023 459.115 335.992L458.973 335.512L533.785 313.439L533.926 313.918C534.651 316.374 534.885 318.949 534.615 321.495C534.344 324.042 533.575 326.51 532.351 328.759C531.126 331.008 529.471 332.994 527.479 334.604C525.487 336.213 523.198 337.415 520.742 338.139L483.336 349.176C481.536 349.709 479.668 349.981 477.791 349.982Z" fill="#3F3D56"/>
<path id="Vector_24" d="M487.406 471.464L501.019 468.106L494.726 412.809L474.634 417.767L487.406 471.464Z" fill="#FFB6B6"/>
<path id="Vector_25" d="M480.959 455.596L502.204 445.697L505.888 455.019L532.221 461.13C533.522 461.432 534.692 462.141 535.561 463.155C536.429 464.169 536.951 465.433 537.05 466.765C537.149 468.096 536.82 469.425 536.111 470.556C535.402 471.687 534.349 472.562 533.108 473.052L507.204 483.291L499.094 475.835L500.995 485.745L491.229 489.605L480.959 455.596Z" fill="#2F2E41"/>
<path id="Vector_26" d="M501.782 421.636L472.756 439.043L441.798 329.711C391.578 329.283 345.143 323.66 307.23 306.342C294.385 300.526 288.672 285.144 294.468 271.986C294.739 271.371 295.033 270.767 295.35 270.175C302.73 256.522 317.038 248.504 329.733 234.315L392.709 257.566L388.196 274.525L459.433 278.101C473.759 278.82 484.712 291.263 483.897 305.894C483.854 306.667 483.778 307.436 483.669 308.203L501.782 421.636Z" fill="#2F2E41"/>
<path id="Vector_27" d="M378.641 83.5892L397.994 93.7084C399.063 94.1352 399.972 94.8848 400.595 95.8529C401.218 96.8209 401.523 97.9592 401.469 99.1091L406.51 119.281L424.247 156.824C424.247 156.824 428.869 176.806 420.049 195.671C411.229 214.537 391.709 261.566 391.709 261.566C378.978 292.06 274.476 268.512 301.709 242.566C304.949 239.479 323.162 213.403 329.826 211.904L346.176 118.338C347 113.399 348.907 108.702 351.761 104.586C354.614 100.47 358.342 97.0366 362.679 94.5316C365.299 93.0507 367.727 92.1739 369.392 92.6213C373.185 93.5054 374.978 84.9145 378.641 83.5892Z" fill="#6C63FF"/>
<path id="Vector_28" d="M546.72 207.566C544.96 208.565 543.003 209.167 540.985 209.329C538.968 209.49 536.939 209.207 535.043 208.5C533.147 207.792 531.429 206.678 530.01 205.235C528.591 203.791 527.505 202.055 526.83 200.147L415.402 192.611L429.346 171.182L536.157 182.018C539.438 181.097 542.943 181.41 546.008 182.9C549.072 184.389 551.484 186.951 552.786 190.1C554.088 193.249 554.19 196.767 553.072 199.986C551.954 203.205 549.694 205.902 546.72 207.566Z" fill="#FFB6B6"/>
<path id="Vector_29" d="M361.484 110.595C361.484 110.595 344.571 115.824 348.599 135.687C352.628 155.551 403.474 193.023 411.489 199.309C419.503 205.594 486.2 197.122 486.2 197.122L503.428 175.153L438.472 165.967L361.484 110.595Z" fill="#6C63FF"/>
<path id="Vector_30" d="M588.367 312.522C594.324 310.319 596.437 301.185 593.086 292.12C589.734 283.054 582.188 277.491 576.231 279.693C570.274 281.895 568.161 291.029 571.512 300.095C574.864 309.16 582.41 314.724 588.367 312.522Z" fill="#6C63FF"/>
</g>
<g id="left-wheel">
<path id="Vector_31" d="M206.249 624.12C184.888 624.12 164.008 617.786 146.247 605.919C128.486 594.052 114.644 577.184 106.47 557.45C98.2953 537.716 96.1566 516 100.324 495.05C104.491 474.1 114.777 454.857 129.881 439.753C144.985 424.649 164.229 414.363 185.179 410.195C206.129 406.028 227.844 408.167 247.578 416.341C267.313 424.515 284.18 438.358 296.047 456.119C307.915 473.879 314.249 494.76 314.249 516.12C314.216 544.754 302.827 572.205 282.58 592.452C262.333 612.699 234.882 624.088 206.249 624.12ZM206.249 418.12C186.866 418.12 167.919 423.868 151.803 434.636C135.687 445.405 123.126 460.71 115.708 478.617C108.291 496.524 106.35 516.229 110.132 535.239C113.913 554.249 123.247 571.711 136.952 585.417C150.658 599.122 168.12 608.456 187.13 612.237C206.14 616.018 225.844 614.078 243.752 606.66C261.659 599.243 276.964 586.682 287.733 570.566C298.501 554.45 304.249 535.503 304.249 516.12C304.219 490.138 293.885 465.228 275.513 446.856C257.14 428.484 232.231 418.15 206.249 418.12Z" fill="#3F3D56"/>
<path id="Vector_32" d="M206.248 532.12C215.085 532.12 222.248 524.956 222.248 516.12C222.248 507.283 215.085 500.12 206.248 500.12C197.412 500.12 190.248 507.283 190.248 516.12C190.248 524.956 197.412 532.12 206.248 532.12Z" fill="#3F3D56"/>
<path id="Vector_33" d="M290.395 553.094H121.657V555.094H290.395V553.094Z" fill="#3F3D56"/>
<path id="Vector_34" d="M290.395 573.094H121.657V575.094H290.395V573.094Z" fill="#3F3D56"/>
</g>
<g id="right-wheel">
<path id="Vector_35" d="M674.689 622.566C652.146 622.566 630.109 615.882 611.365 603.357C592.621 590.833 578.012 573.032 569.385 552.205C560.758 531.378 558.501 508.46 562.899 486.351C567.297 464.241 578.153 443.931 594.093 427.991C610.033 412.051 630.343 401.195 652.452 396.797C674.562 392.399 697.48 394.656 718.307 403.283C739.134 411.91 756.935 426.519 769.459 445.263C781.984 464.007 788.668 486.044 788.668 508.587C788.634 538.806 776.615 567.777 755.247 589.145C733.879 610.513 704.908 622.532 674.689 622.566ZM674.689 405.161C654.233 405.161 634.237 411.227 617.228 422.591C600.22 433.956 586.964 450.109 579.136 469.007C571.307 487.906 569.259 508.702 573.25 528.764C577.241 548.827 587.091 567.256 601.555 581.72C616.02 596.184 634.449 606.035 654.511 610.026C674.574 614.016 695.369 611.968 714.268 604.14C733.167 596.312 749.32 583.056 760.684 566.047C772.049 549.039 778.115 529.043 778.115 508.587C778.084 481.166 767.177 454.877 747.788 435.488C728.398 416.098 702.109 405.192 674.689 405.161Z" fill="#3F3D56"/>
<path id="Vector_36" d="M679.709 532.566C688.546 532.566 695.709 525.403 695.709 516.566C695.709 507.73 688.546 500.566 679.709 500.566C670.872 500.566 663.709 507.73 663.709 516.566C663.709 525.403 670.872 532.566 679.709 532.566Z" fill="#3F3D56"/>
<path id="Vector_37" d="M764.395 553.094H595.657V555.094H764.395V553.094Z" fill="#3F3D56"/>
<path id="Vector_38" d="M764.395 573.094H595.657V575.094H764.395V573.094Z" fill="#3F3D56"/>
</g>
<g id="hair">
<path id="hair_2" d="M428.391 44.9436C423.926 47.1429 418.87 43.9552 414.964 40.7852L416.362 41.9676C409.584 48.6988 406.482 58.3148 405.015 67.7643C403.546 77.204 403.471 86.843 401.596 96.2199C399.719 105.587 395.724 115.02 388.139 120.823C377.979 128.596 363.851 128.25 351.26 126.028C351.092 125.996 350.936 125.972 350.768 125.94C354.049 116.142 355.317 105.783 354.496 95.4838C351.234 105.847 345.597 115.305 338.033 123.104C329.678 120.897 321.515 118.017 313.624 114.493C308.519 112.207 303.014 109.065 301.548 103.664C300.079 98.3045 303.304 92.6337 307.66 89.1951C312.015 85.7565 317.385 83.9306 322.361 81.4616C327.33 79.004 332.236 75.5226 334.182 70.3228C338.67 58.3613 325.394 44.8251 330.393 33.0608C332.858 27.2758 339.009 24.0795 344.796 21.6046C353.631 17.8362 362.71 14.6693 371.972 12.1256C380.103 9.89126 388.598 8.1325 396.918 9.4568C405.237 10.7811 413.426 15.7489 416.496 23.6054C421.501 25.2397 426.815 27.0851 430.059 31.2502C433.302 35.4055 433.118 42.6184 428.391 44.9436Z" fill="#2F2E41"/>
</g>
</g>
</svg>
